# xmcd
#
# Track frame offsets:
#	150
#	28271
#	52033
#	75139
#	90088
#	108198
#	135537
#	156252
#	184541
#	211161
#	232889
#	251648
#	268428
#	297635
#
# Disc length: 4138 seconds
#
# Revision: 1
# Processed by: cddbd v1.5.1PL0 Copyright (c) Steve Scherf et al.
# Submitted via: dBpowerAMP V4.0
#
DISCID=b910280e
DTITLE=Memphis La Blusera - El Acustico
DYEAR=1999
DGENRE=Blues
TTITLE0=Decime Cuando
TTITLE1=En Todas las Ciudades
TTITLE2=Blues en Fa
TTITLE3=Vuelvo a Casa Mama
TTITLE4=El Trepador
TTITLE5=La Sirenita y el Lobo de Mar
TTITLE6=La Ultima Lagrima
TTITLE7=Tonto Rompecabezas - Monton de Nada - Cosa de Hombres
TTITLE8=Alma Bajo la Lluvia
TTITLE9=Blues de Rosario
TTITLE10=La Flor mas Bella
TTITLE11=La Colmena
TTITLE12=Chau Catalana
TTITLE13=Seducidos por Papi Lucifer
EXTD=
EXTT0=
EXTT1=
EXTT2=
EXTT3=
EXTT4=
EXTT5=
EXTT6=
EXTT7=
EXTT8=
EXTT9=
EXTT10=
EXTT11=
EXTT12=
EXTT13=
PLAYORDER=
